<svg width="65" height="32" viewBox="0 0 65 32" fill="none" xmlns="http://www.w3.org/2000/svg">
<path d="M16 0H65V16C65 24.8366 57.8366 32 49 32H32C23.1634 32 16 24.8366 16 16V0Z" fill="#E2D17A"/>
<path d="M26.7051 22C26.4883 22 26.3301 21.9502 26.2305 21.8506C26.1309 21.751 26.0811 21.5928 26.0811 21.376V11.5322C26.0811 11.3623 26.1572 11.2363 26.3096 11.1543C26.4619 11.0664 26.6992 11.0225 27.0215 11.0225H27.5488C27.8711 11.0225 28.1084 11.0664 28.2607 11.1543C28.4131 11.2363 28.4893 11.3623 28.4893 11.5322V19.9521H31.9697C32.1338 19.9521 32.251 20.0137 32.3213 20.1367C32.3975 20.2598 32.4355 20.4561 32.4355 20.7256V21.2178C32.4355 21.4932 32.3975 21.6924 32.3213 21.8154C32.251 21.9385 32.1338 22 31.9697 22H26.7051ZM37.0146 22.1318C35.7783 22.1318 34.835 21.7686 34.1846 21.042C33.54 20.3154 33.2178 19.2695 33.2178 17.9043C33.2178 16.5449 33.54 15.5049 34.1846 14.7842C34.835 14.0635 35.7783 13.7031 37.0146 13.7031C38.251 13.7031 39.1885 14.0635 39.8271 14.7842C40.4717 15.499 40.7939 16.5391 40.7939 17.9043C40.7939 19.2695 40.4717 20.3154 39.8271 21.042C39.1885 21.7686 38.251 22.1318 37.0146 22.1318ZM37.0146 20.2949C37.5068 20.2949 37.8672 20.0957 38.0957 19.6973C38.3301 19.2988 38.4473 18.7012 38.4473 17.9043C38.4473 17.1133 38.3301 16.5186 38.0957 16.1201C37.8672 15.7217 37.5068 15.5225 37.0146 15.5225C36.042 15.5225 35.5557 16.3164 35.5557 17.9043C35.5557 18.6953 35.6729 19.293 35.9072 19.6973C36.1475 20.0957 36.5166 20.2949 37.0146 20.2949ZM44.5293 22.1318C44.125 22.1318 43.7236 22.0879 43.3252 22C42.9268 21.9121 42.5957 21.7861 42.332 21.6221C42.0742 21.458 41.9453 21.2705 41.9453 21.0596C41.9453 20.9307 41.9922 20.7695 42.0859 20.5762C42.1797 20.3828 42.291 20.2158 42.4199 20.0752C42.5547 19.9287 42.6719 19.8555 42.7715 19.8555C42.8242 19.8555 42.9385 19.8965 43.1143 19.9785C43.3193 20.0723 43.5156 20.1484 43.7031 20.207C43.8906 20.2656 44.1045 20.2949 44.3447 20.2949C44.6436 20.2949 44.8691 20.2393 45.0215 20.1279C45.1738 20.0166 45.25 19.8525 45.25 19.6357C45.25 19.4717 45.2031 19.3369 45.1094 19.2314C45.0215 19.1201 44.9072 19.0293 44.7666 18.959C44.626 18.8887 44.4268 18.8037 44.1689 18.7041L43.9141 18.6074C43.5801 18.4785 43.2871 18.332 43.0352 18.168C42.7832 18.0039 42.5693 17.7666 42.3936 17.4561C42.2178 17.1396 42.1299 16.7412 42.1299 16.2607C42.1299 15.7275 42.2441 15.2705 42.4727 14.8896C42.707 14.5029 43.0381 14.21 43.4658 14.0107C43.8936 13.8057 44.3975 13.7031 44.9775 13.7031C45.3115 13.7031 45.6602 13.7354 46.0234 13.7998C46.3867 13.8643 46.6914 13.9639 46.9375 14.0986C47.1895 14.2334 47.3154 14.4033 47.3154 14.6084C47.3154 14.7256 47.2773 14.8838 47.2012 15.083C47.1309 15.2822 47.043 15.458 46.9375 15.6104C46.832 15.7627 46.7324 15.8389 46.6387 15.8389C46.6094 15.8389 46.5273 15.8125 46.3926 15.7598C46.2109 15.6836 46.0352 15.625 45.8652 15.584C45.7012 15.5371 45.5107 15.5137 45.2939 15.5137C44.7432 15.5137 44.4678 15.6953 44.4678 16.0586C44.4678 16.2227 44.5176 16.3633 44.6172 16.4805C44.7227 16.5977 44.8516 16.6943 45.0039 16.7705C45.1562 16.8467 45.3701 16.9375 45.6455 17.043C45.9619 17.1719 46.1582 17.2539 46.2344 17.2891C46.6445 17.4941 46.9727 17.7666 47.2188 18.1064C47.4707 18.4404 47.5967 18.8887 47.5967 19.4512C47.5967 19.9844 47.4766 20.4531 47.2363 20.8574C46.9961 21.2617 46.6445 21.5752 46.1816 21.7979C45.7188 22.0205 45.168 22.1318 44.5293 22.1318ZM51.3936 22.1318C50.6494 22.1318 50.0811 21.9238 49.6885 21.5078C49.3018 21.0859 49.1084 20.4473 49.1084 19.5918V15.6543H48.8623C48.6982 15.6543 48.5781 15.5928 48.502 15.4697C48.4316 15.3467 48.3965 15.1475 48.3965 14.8721V14.6084C48.3965 14.333 48.4316 14.1338 48.502 14.0107C48.5781 13.8877 48.6982 13.8262 48.8623 13.8262H49.1084L49.3105 12.3408C49.3574 12.0127 49.6387 11.8486 50.1543 11.8486H50.6465C50.916 11.8486 51.1123 11.8896 51.2354 11.9717C51.3643 12.0537 51.4287 12.1768 51.4287 12.3408V13.8262H52.1934C52.3574 13.8262 52.4746 13.8877 52.5449 14.0107C52.6211 14.1338 52.6592 14.333 52.6592 14.6084V14.8721C52.6592 15.1475 52.6211 15.3467 52.5449 15.4697C52.4746 15.5928 52.3574 15.6543 52.1934 15.6543H51.4287V19.6182C51.4287 19.8584 51.4697 20.0312 51.5518 20.1367C51.6396 20.2422 51.7832 20.2949 51.9824 20.2949C52.041 20.2949 52.1201 20.2861 52.2197 20.2686C52.3193 20.2451 52.3809 20.2334 52.4043 20.2334C52.498 20.2334 52.5801 20.3125 52.6504 20.4707C52.7266 20.623 52.7852 20.793 52.8262 20.9805C52.873 21.168 52.8965 21.2939 52.8965 21.3584C52.8965 21.874 52.3955 22.1318 51.3936 22.1318Z" fill="#0B203C"/>
<path d="M0 16L16 0V16H0Z" fill="#404955"/>
</svg>
