<svg width="83" height="32" viewBox="0 0 83 32" fill="none" xmlns="http://www.w3.org/2000/svg">
<path d="M16 0H83V16C83 24.8366 75.8366 32 67 32H32C23.1634 32 16 24.8366 16 16V0Z" fill="#7AE5D0"/>
<path d="M27.0215 22.0264C26.3945 22.0264 26.0811 21.8623 26.0811 21.5342V11.6816C26.0811 11.4648 26.1309 11.3096 26.2305 11.2158C26.3301 11.1162 26.4883 11.0664 26.7051 11.0664H29.9922C30.9648 11.0664 31.8262 11.3037 32.5762 11.7783C33.3262 12.2529 33.7012 13.1553 33.7012 14.4854C33.7012 15.3994 33.4844 16.1113 33.0508 16.6211C32.6172 17.125 32.1279 17.4648 31.583 17.6406C31.0439 17.8164 30.5635 17.9043 30.1416 17.9043H28.4893V21.5342C28.4893 21.8623 28.1758 22.0264 27.5488 22.0264H27.0215ZM29.8779 15.8389C30.2529 15.8389 30.5723 15.7393 30.8359 15.54C31.1055 15.3408 31.2402 14.9893 31.2402 14.4854C31.2402 13.9756 31.1055 13.6182 30.8359 13.4131C30.5664 13.208 30.2471 13.1055 29.8779 13.1055H28.4893V15.8389H29.8779ZM36.8828 22.1318C36.0859 22.1318 35.5 21.9238 35.125 21.5078C34.7559 21.0859 34.5713 20.5293 34.5713 19.8379C34.5713 19.3164 34.6797 18.8477 34.8965 18.4316C35.1133 18.0098 35.5527 17.6553 36.2148 17.3682C36.877 17.0811 37.8232 16.9375 39.0537 16.9375V16.4189C39.0537 16.1143 38.957 15.8887 38.7637 15.7422C38.5703 15.5957 38.2627 15.5225 37.8408 15.5225C37.4893 15.5225 37.1875 15.5605 36.9355 15.6367C36.6836 15.707 36.4111 15.8037 36.1182 15.9268C35.9658 15.9971 35.8721 16.0322 35.8369 16.0322C35.7314 16.0322 35.6143 15.9531 35.4854 15.7949C35.3623 15.6367 35.2539 15.4551 35.1602 15.25C35.0664 15.0449 35.0195 14.8896 35.0195 14.7842C35.0195 14.6025 35.1484 14.4297 35.4062 14.2656C35.6699 14.0957 36.0303 13.9609 36.4873 13.8613C36.9443 13.7559 37.4512 13.7031 38.0078 13.7031C39.1797 13.7031 40.0322 13.9375 40.5654 14.4062C41.0986 14.8691 41.3652 15.5049 41.3652 16.3135V19.2402C41.3652 19.7266 41.377 20.1045 41.4004 20.374C41.4297 20.6436 41.4678 20.9102 41.5146 21.1738C41.5439 21.332 41.5586 21.4434 41.5586 21.5078C41.5586 21.625 41.4473 21.7217 41.2246 21.7979C41.0078 21.874 40.7588 21.9297 40.4775 21.9648C40.1963 22 39.9707 22.0176 39.8008 22.0176C39.6191 22.0176 39.4873 21.9414 39.4053 21.7891C39.3291 21.6309 39.2676 21.417 39.2207 21.1475C39.2148 21.1123 39.209 21.0771 39.2031 21.042C39.1973 21.0068 39.1885 20.9717 39.1768 20.9365C39.1182 21.0479 38.9922 21.1973 38.7988 21.3848C38.6113 21.5723 38.3535 21.7451 38.0254 21.9033C37.6973 22.0557 37.3164 22.1318 36.8828 22.1318ZM37.6475 20.2949C37.9404 20.2949 38.2158 20.2041 38.4736 20.0225C38.7314 19.835 38.9248 19.5977 39.0537 19.3105V18.4492C37.5947 18.4492 36.8652 18.833 36.8652 19.6006C36.8652 19.8057 36.9326 19.9727 37.0674 20.1016C37.208 20.2305 37.4014 20.2949 37.6475 20.2949ZM45.584 22.0264C45.0625 22.0264 44.7725 21.918 44.7139 21.7012L42.7539 14.4414C42.7305 14.3711 42.7188 14.292 42.7188 14.2041C42.7188 13.9346 43.0439 13.7998 43.6943 13.7998C44.1162 13.7998 44.418 13.8262 44.5996 13.8789C44.7871 13.9258 44.8955 14.0078 44.9248 14.125L45.9883 18.2471C46.0117 18.3291 46.041 18.4521 46.0762 18.6162L46.1553 18.9414C46.2197 18.6777 46.2842 18.4316 46.3486 18.2031L47.3418 14.125C47.3828 13.9082 47.6729 13.7998 48.2119 13.7998H48.5811C48.8154 13.7998 49.0117 13.8291 49.1699 13.8877C49.3281 13.9404 49.4189 14.0195 49.4424 14.125L50.4443 18.2998C50.4502 18.3467 50.4736 18.4404 50.5146 18.5811L50.5938 18.9414L50.7783 18.2471L51.8594 14.125C51.9297 13.9082 52.2373 13.7998 52.7822 13.7998C53.4268 13.7998 53.749 13.9346 53.749 14.2041C53.749 14.2217 53.7373 14.3008 53.7139 14.4414L51.877 21.7012C51.8477 21.8066 51.7539 21.8887 51.5957 21.9473C51.4375 22 51.2441 22.0264 51.0156 22.0264H50.251C49.7354 22.0264 49.4512 21.918 49.3984 21.7012L48.4404 17.9834C48.3994 17.8369 48.3438 17.6113 48.2734 17.3066L48.0889 18.001L47.2012 21.7012C47.1777 21.8066 47.0869 21.8887 46.9287 21.9473C46.7705 22 46.5771 22.0264 46.3486 22.0264H45.584ZM56.0166 22.0264C55.3955 22.0264 55.085 21.8623 55.085 21.5342V16.5771C55.085 15.8271 55.0352 15.2031 54.9355 14.7051C54.9062 14.5469 54.8916 14.4355 54.8916 14.3711C54.8916 14.2539 55 14.1602 55.2168 14.0898C55.4395 14.0137 55.6885 13.958 55.9639 13.9229C56.2451 13.8877 56.4707 13.8701 56.6406 13.8701C56.8223 13.8701 56.9482 13.9375 57.0186 14.0723C57.0947 14.207 57.1621 14.4033 57.2207 14.6611L57.2734 14.8896C57.5195 14.5615 57.8477 14.2832 58.2578 14.0547C58.6738 13.8203 59.1191 13.7031 59.5938 13.7031C60.3789 13.7031 60.959 13.9082 61.334 14.3184C61.709 14.7285 61.8965 15.3643 61.8965 16.2256V21.5342C61.8965 21.8623 61.5801 22.0264 60.9473 22.0264H60.5166C59.8955 22.0264 59.585 21.8623 59.585 21.5342V16.5771C59.585 16.2607 59.5088 16.0205 59.3564 15.8564C59.21 15.6924 58.9697 15.6104 58.6357 15.6104C58.3545 15.6104 58.1055 15.7041 57.8887 15.8916C57.6719 16.0791 57.5078 16.2871 57.3965 16.5156V21.5342C57.3965 21.8623 57.0801 22.0264 56.4473 22.0264H56.0166ZM66.3965 22.1318C65.8281 22.1318 65.3213 21.9678 64.876 21.6396C64.4365 21.3057 64.0908 20.8223 63.8389 20.1895C63.5928 19.5508 63.4697 18.7891 63.4697 17.9043C63.4697 17.0547 63.5986 16.3135 63.8564 15.6807C64.1143 15.0479 64.4893 14.5615 64.9814 14.2217C65.4795 13.876 66.0742 13.7031 66.7656 13.7031C67.3867 13.7031 67.917 13.8643 68.3564 14.1865V10.7236C68.3564 10.3838 68.6699 10.2139 69.2969 10.2139H69.7363C70.0586 10.2139 70.293 10.2578 70.4395 10.3457C70.5918 10.4277 70.668 10.5537 70.668 10.7236V19.2402C70.668 19.7266 70.6797 20.1045 70.7031 20.374C70.7324 20.6436 70.7705 20.9102 70.8174 21.1738C70.8467 21.332 70.8613 21.4434 70.8613 21.5078C70.8613 21.625 70.75 21.7217 70.5273 21.7979C70.3105 21.874 70.0615 21.9297 69.7803 21.9648C69.5049 22 69.2822 22.0176 69.1123 22.0176C68.9307 22.0176 68.8018 21.9473 68.7256 21.8066C68.6553 21.666 68.5908 21.4609 68.5322 21.1914L68.4795 20.9541C68.292 21.2998 68.0137 21.584 67.6445 21.8066C67.2754 22.0234 66.8594 22.1318 66.3965 22.1318ZM67.082 20.2334C67.5742 20.2334 67.999 19.9258 68.3564 19.3105V15.8213C67.9873 15.6221 67.624 15.5225 67.2666 15.5225C66.2939 15.5225 65.8076 16.3164 65.8076 17.9043C65.8076 19.457 66.2324 20.2334 67.082 20.2334Z" fill="#0B203C"/>
<path d="M0 16L16 0V16H0Z" fill="#404955"/>
</svg>
